<svg width="186" height="186" viewBox="0 0 186 186" fill="none" xmlns="http://www.w3.org/2000/svg">
<g filter="url(#filter0_d_604_5)">
<path d="M92.76 177.52C141.781 177.52 181.52 137.781 181.52 88.76C181.52 39.7392 141.781 0 92.76 0C43.7392 0 4 39.7392 4 88.76C4 137.781 43.7392 177.52 92.76 177.52Z" fill="#4A6634"/>
<path d="M24.8251 87.8727C24.819 88.2492 24.6789 88.57 24.405 88.8352C24.131 89.1005 23.8058 89.23 23.4293 89.2239C23.0529 89.2178 22.7321 89.0778 22.4668 88.8038C22.2016 88.5298 22.0721 88.2046 22.0782 87.8282C22.0843 87.4517 22.2243 87.1309 22.4983 86.8657C22.7723 86.6004 23.0975 86.4709 23.4739 86.477C23.7232 86.481 23.9511 86.5483 24.1576 86.6789C24.3641 86.8044 24.5293 86.9724 24.6531 87.183C24.7719 87.3885 24.8292 87.6184 24.8251 87.8727Z" fill="white"/>
<path d="M34.5373 82.2346L16.3334 79.1229L16.9557 75.4821L32.0567 78.0634L32.6967 74.3192L35.7997 74.8496L34.5373 82.2346Z" fill="white"/>
<path d="M37.1906 70.4103L19.8386 64.0879L21.0599 60.7358L38.412 67.0582L37.1906 70.4103Z" fill="white"/>
<path d="M40.0263 62.4401L24.6422 52.2228L27.7538 47.5376L37.9921 52.473L29.4664 44.959L32.607 40.2302L47.9912 50.4475L46.1219 53.2621L35.0383 45.901L44.9492 55.0278L43.1147 57.7899L30.7888 52.2994L41.8724 59.6605L40.0263 62.4401Z" fill="white"/>
<path d="M51.6176 47.1659L39.0343 33.6483L41.6456 31.2174L54.229 44.735L51.6176 47.1659Z" fill="white"/>
<path d="M59.6098 40.5421L51.5377 27.9927L49.6933 29.1791L47.7746 26.1962L54.57 21.8253L56.4887 24.8082L54.6442 25.9946L62.7162 38.5439L59.6098 40.5421Z" fill="white"/>
<path d="M68.6976 35.3231L62.1606 18.0508L69.0695 15.436L70.3324 18.7727L66.9368 20.0578L68.2107 23.4239L71.4689 22.1908L72.6983 25.4392L69.4402 26.6723L70.937 30.6273L74.5583 29.2567L75.8323 32.6229L68.6976 35.3231Z" fill="white"/>
<path d="M80.3448 31.4274L77.8512 13.1285L82.8833 12.4428C84.2003 12.2633 85.2415 12.4956 86.0071 13.1397C86.7717 13.7768 87.2498 14.7989 87.4416 16.206L88.6091 24.7731C88.8452 26.506 88.7225 27.8853 88.241 28.9111C87.7664 29.9359 86.7702 30.5518 85.2522 30.7586L80.3448 31.4274ZM83.5847 27.6923L84.2189 27.6059C84.8913 27.5143 85.183 27.1427 85.0943 26.4912L83.8078 17.0506C83.7247 16.4407 83.5881 16.0604 83.3981 15.9098C83.2142 15.7513 82.8726 15.706 82.3736 15.774L81.9681 15.8293L83.5847 27.6923Z" fill="white"/>
<path d="M103.285 31.1139L107.7 13.1814L114.873 14.9472L114.02 18.4115L110.495 17.5436L109.635 21.0384L113.017 21.8712L112.187 25.2437L108.804 24.411L107.793 28.5171L111.553 29.4427L110.693 32.9375L103.285 31.1139Z" fill="white"/>
<path d="M115.089 34.5022L123.412 18.0165L127.946 20.3055C129.133 20.9046 129.858 21.6865 130.124 22.6511C130.392 23.6094 130.206 24.7224 129.566 25.9901L125.669 33.7084C124.881 35.2695 123.998 36.336 123.019 36.9078C122.047 37.4828 120.877 37.425 119.51 36.7345L115.089 34.5022ZM119.875 33.2633L120.447 33.5518C121.052 33.8576 121.503 33.7171 121.8 33.1301L126.094 24.625C126.372 24.0754 126.475 23.6848 126.404 23.453C126.342 23.2181 126.087 22.9872 125.637 22.7602L125.272 22.5757L119.875 33.2633Z" fill="white"/>
<path d="M127.284 41.5178L138.641 26.955L141.455 29.149L130.097 43.7119L127.284 41.5178Z" fill="white"/>
<path d="M135.08 48.3623L146.19 38.4013L144.726 36.7684L147.367 34.4008L152.76 40.4165L150.12 42.7842L148.656 41.1513L137.546 51.1124L135.08 48.3623Z" fill="white"/>
<path d="M141.624 56.5766L157.342 46.8804L159.215 49.9168L143.497 59.613L141.624 56.5766Z" fill="white"/>
<path d="M147.388 68.3135C146.871 66.9312 146.89 65.7175 147.448 64.6722C148.014 63.631 149.086 62.8147 150.665 62.2235L158.88 59.1471C160.361 58.5926 161.619 58.5322 162.656 58.9658C163.694 59.4059 164.475 60.3237 164.998 61.7191C165.52 63.1145 165.533 64.316 165.037 65.3237C164.542 66.3379 163.555 67.1222 162.074 67.6767L153.859 70.7531C152.28 71.3443 150.934 71.4301 149.821 71.0104C148.717 70.5948 147.906 69.6958 147.388 68.3135ZM150.583 67.1507C150.779 67.6748 151.385 67.7467 152.401 67.3665L160.842 64.2054C161.693 63.8865 162.024 63.4715 161.832 62.9605C161.616 62.384 161.073 62.2589 160.201 62.5852L151.77 65.7426C151.233 65.9438 150.871 66.154 150.684 66.3734C150.504 66.5903 150.47 66.8494 150.583 67.1507Z" fill="white"/>
<path d="M150.282 77.2394L168.619 75.0464L169.07 78.818L160.489 81.5563L169.272 80.5059L169.696 84.0483L151.359 86.2414L150.93 82.6573L159.879 79.727L150.711 80.8236L150.282 77.2394Z" fill="white"/>
<path d="M160.478 94.3872C160.505 94.0116 160.663 93.699 160.951 93.4492C161.239 93.1994 161.571 93.0879 161.946 93.1147C162.322 93.1415 162.634 93.299 162.884 93.5871C163.134 93.8753 163.245 94.2071 163.219 94.5826C163.192 94.9582 163.034 95.2708 162.746 95.5206C162.458 95.7704 162.126 95.8819 161.751 95.8551C161.502 95.8373 161.278 95.7576 161.079 95.6159C160.88 95.4793 160.724 95.3024 160.612 95.0853C160.505 94.8736 160.46 94.6409 160.478 94.3872Z" fill="white"/>
<path fill-rule="evenodd" clip-rule="evenodd" d="M68.6996 78.06C63.4896 84.17 58.4996 91.75 58.4496 97.42C58.4296 99.55 59.1096 101.41 60.7396 102.82C63.0896 104.85 65.6796 105.57 68.2496 105.57C72.0096 105.57 75.7496 104.06 78.6796 102.89C83.6096 100.92 138.1 77.25 138.1 77.25C138.63 76.99 138.53 76.66 137.87 76.82C137.6 76.89 78.5496 92.89 78.5496 92.89C77.4296 93.21 76.2796 93.37 75.1096 93.38C70.5696 93.41 66.5296 90.89 66.5696 85.58C66.5796 83.5 67.2196 81 68.6896 78.05L68.6996 78.06Z" fill="white"/>
</g>
<g filter="url(#filter1_d_604_5)">
<path d="M60.6037 163.948L67.5847 142.334L72.0303 143.77L70.676 154.765L74.0198 144.413L78.1952 145.761L71.2141 167.375L66.9896 166.011L68.3187 154.506L64.8282 165.313L60.6037 163.948Z" fill="white"/>
</g>
<g filter="url(#filter2_d_604_5)">
<path d="M83.4537 169.261L84.8719 146.592L89.2512 146.866L87.8329 169.535L83.4537 169.261Z" fill="white"/>
</g>
<g filter="url(#filter3_d_604_5)">
<path d="M100.032 169.199L96.002 146.846L100.422 146.049L102.036 155.003L102.505 145.674L107.001 144.863L106.344 155.551L111.551 167.122L106.916 167.958L102.526 157.577L104.477 168.398L100.032 169.199Z" fill="white"/>
</g>
<g filter="url(#filter4_d_604_5)">
<path d="M122.79 163.091L112.659 142.763L120.79 138.71L122.747 142.637L118.751 144.629L120.725 148.591L124.56 146.68L126.465 150.503L122.631 152.414L124.95 157.069L129.212 154.945L131.187 158.906L122.79 163.091Z" fill="white"/>
</g>
<defs>
<filter id="filter0_d_604_5" x="0" y="0" width="185.52" height="185.52" filterUnits="userSpaceOnUse" color-interpolation-filters="sRGB">
<feFlood flood-opacity="0" result="BackgroundImageFix"/>
<feColorMatrix in="SourceAlpha" type="matrix" values="0 0 0 0 0 0 0 0 0 0 0 0 0 0 0 0 0 0 127 0" result="hardAlpha"/>
<feOffset dy="4"/>
<feGaussianBlur stdDeviation="2"/>
<feComposite in2="hardAlpha" operator="out"/>
<feColorMatrix type="matrix" values="0 0 0 0 0 0 0 0 0 0 0 0 0 0 0 0 0 0 0.25 0"/>
<feBlend mode="normal" in2="BackgroundImageFix" result="effect1_dropShadow_604_5"/>
<feBlend mode="normal" in="SourceGraphic" in2="effect1_dropShadow_604_5" result="shape"/>
</filter>
<filter id="filter1_d_604_5" x="56.6035" y="142.334" width="25.5918" height="33.0409" filterUnits="userSpaceOnUse" color-interpolation-filters="sRGB">
<feFlood flood-opacity="0" result="BackgroundImageFix"/>
<feColorMatrix in="SourceAlpha" type="matrix" values="0 0 0 0 0 0 0 0 0 0 0 0 0 0 0 0 0 0 127 0" result="hardAlpha"/>
<feOffset dy="4"/>
<feGaussianBlur stdDeviation="2"/>
<feComposite in2="hardAlpha" operator="out"/>
<feColorMatrix type="matrix" values="0 0 0 0 0 0 0 0 0 0 0 0 0 0 0 0 0 0 0.25 0"/>
<feBlend mode="normal" in2="BackgroundImageFix" result="effect1_dropShadow_604_5"/>
<feBlend mode="normal" in="SourceGraphic" in2="effect1_dropShadow_604_5" result="shape"/>
</filter>
<filter id="filter2_d_604_5" x="79.4541" y="146.592" width="13.7969" height="30.9429" filterUnits="userSpaceOnUse" color-interpolation-filters="sRGB">
<feFlood flood-opacity="0" result="BackgroundImageFix"/>
<feColorMatrix in="SourceAlpha" type="matrix" values="0 0 0 0 0 0 0 0 0 0 0 0 0 0 0 0 0 0 127 0" result="hardAlpha"/>
<feOffset dy="4"/>
<feGaussianBlur stdDeviation="2"/>
<feComposite in2="hardAlpha" operator="out"/>
<feColorMatrix type="matrix" values="0 0 0 0 0 0 0 0 0 0 0 0 0 0 0 0 0 0 0.25 0"/>
<feBlend mode="normal" in2="BackgroundImageFix" result="effect1_dropShadow_604_5"/>
<feBlend mode="normal" in="SourceGraphic" in2="effect1_dropShadow_604_5" result="shape"/>
</filter>
<filter id="filter3_d_604_5" x="92.002" y="144.769" width="23.5498" height="32.4298" filterUnits="userSpaceOnUse" color-interpolation-filters="sRGB">
<feFlood flood-opacity="0" result="BackgroundImageFix"/>
<feColorMatrix in="SourceAlpha" type="matrix" values="0 0 0 0 0 0 0 0 0 0 0 0 0 0 0 0 0 0 127 0" result="hardAlpha"/>
<feOffset dy="4"/>
<feGaussianBlur stdDeviation="2"/>
<feComposite in2="hardAlpha" operator="out"/>
<feColorMatrix type="matrix" values="0 0 0 0 0 0 0 0 0 0 0 0 0 0 0 0 0 0 0.25 0"/>
<feBlend mode="normal" in2="BackgroundImageFix" result="effect1_dropShadow_604_5"/>
<feBlend mode="normal" in="SourceGraphic" in2="effect1_dropShadow_604_5" result="shape"/>
</filter>
<filter id="filter4_d_604_5" x="108.658" y="138.578" width="26.5283" height="32.5134" filterUnits="userSpaceOnUse" color-interpolation-filters="sRGB">
<feFlood flood-opacity="0" result="BackgroundImageFix"/>
<feColorMatrix in="SourceAlpha" type="matrix" values="0 0 0 0 0 0 0 0 0 0 0 0 0 0 0 0 0 0 127 0" result="hardAlpha"/>
<feOffset dy="4"/>
<feGaussianBlur stdDeviation="2"/>
<feComposite in2="hardAlpha" operator="out"/>
<feColorMatrix type="matrix" values="0 0 0 0 0 0 0 0 0 0 0 0 0 0 0 0 0 0 0.25 0"/>
<feBlend mode="normal" in2="BackgroundImageFix" result="effect1_dropShadow_604_5"/>
<feBlend mode="normal" in="SourceGraphic" in2="effect1_dropShadow_604_5" result="shape"/>
</filter>
</defs>
</svg>
