<svg width="80" height="30" viewBox="0 0 80 30" fill="none" xmlns="http://www.w3.org/2000/svg">
<path fill-rule="evenodd" clip-rule="evenodd" d="M10.2476 1.88052C5.04181 7.99406 0.0504568 15.5754 0.000406351 21.2422C-0.019087 23.3743 0.6616 25.2357 2.2943 26.6455C4.64404 28.676 7.23297 29.392 9.80925 29.3962C13.5741 29.4014 17.3126 27.8825 20.2398 26.7114C25.1695 24.7399 79.6629 1.0755 79.6629 1.0755C80.1887 0.812074 80.0902 0.48385 79.4321 0.6477C79.1666 0.714083 20.1075 16.7192 20.1075 16.7192C18.9888 17.0356 17.8329 17.2011 16.6704 17.2113C12.1316 17.2381 8.09278 14.7187 8.12545 9.4097C8.13809 7.33234 8.77399 4.82718 10.2476 1.88052Z" fill="#240404"/>
</svg>
