<svg width="40" height="40" viewBox="0 0 40 40" fill="none" xmlns="http://www.w3.org/2000/svg">
<circle cx="20" cy="20" r="19.5" fill="white" stroke="#F4EDED"/>
<path d="M28.4134 12.7413C27.3781 11.6184 25.9575 11 24.413 11C23.2585 11 22.2012 11.365 21.2704 12.0847C20.8008 12.4481 20.3752 12.8925 20 13.4113C19.6249 12.8927 19.1992 12.4481 18.7294 12.0847C17.7988 11.365 16.7415 11 15.587 11C14.0425 11 12.6218 11.6184 11.5865 12.7413C10.5635 13.8511 10 15.3672 10 17.0106C10 18.702 10.6303 20.2503 11.9836 21.8833C13.1943 23.3441 14.9342 24.8269 16.9492 26.544C17.6372 27.1304 18.4171 27.795 19.2268 28.5031C19.4408 28.6904 19.7153 28.7936 20 28.7936C20.2846 28.7936 20.5592 28.6904 20.7729 28.5034C21.5826 27.7952 22.363 27.1302 23.0513 26.5435C25.0659 24.8268 26.8059 23.3441 28.0165 21.8832C29.3698 20.2503 30 18.702 30 17.0104C30 15.3672 29.4365 13.8511 28.4134 12.7413Z" fill="#DFD8D8"/>
</svg>
